<svg xmlns="http://www.w3.org/2000/svg" viewBox="0 0 1920.07324 919"><defs><style>.cls-1{fill:#64ffda;}.cls-2{fill:#fdf6df;}.cls-3{fill:#fe8d64;}.cls-4{fill:#3f51b5;}</style></defs><title>utv-bg-txt-2</title><g id="Layer_3" data-name="Layer 3"><rect class="cls-1" width="1920" height="919"/><path class="cls-2" d="M0,560Q648.99976,280.00024,1298,0q310.99951,206.00024,622,412V919H0Z"/><path class="cls-3" d="M971.4375,798.12012v51.64453H1023.082V798.12012ZM742.00781,604.18652V849.76465h49.207V715.39746L938.53125,849.76465V604.18652h-49.207V738.40137Zm-72.21094,0V751.50293a49.05472,49.05472,0,0,1-98.10937,0V604.18652h-49.207V751.50293q0,40.67578,28.793,69.46875t69.46875,28.793q40.52344,0,69.39258-28.793t28.86914-69.46875V604.18652Zm-219.67969,0V751.50293a46.99879,46.99879,0,0,1-14.54883,34.6582q-14.54883,14.39648-34.6582,14.39648a62.33825,62.33825,0,0,1-9.293-.76172v49.51172q4.57031.457,9.293.457,40.52344,0,69.39258-28.793t28.86914-69.46875V604.18652Z"/><path class="cls-3" d="M1627.57227,467.8252h0q58.98193,0,101.2168,42.23535,42.23438,42.23437,42.23438,101.21582,0,59.27783-42.23438,101.21582-42.23584,41.93848-101.2168,41.93945-59.27637,0-101.21582-41.93945Q1484.418,670.55371,1484.418,611.27637q0-58.98047,41.93848-101.21582Q1568.29492,467.82471,1627.57227,467.8252Zm0-95.43652q-98.69531,0-168.792,70.24414Q1388.686,512.875,1388.68555,611.27637q0,98.69678,70.09473,168.792,70.0957,70.0957,168.792,70.0957,98.40088,0,168.64453-70.0957t70.24414-168.792q0-98.40088-70.24414-168.64355Q1725.97314,372.3877,1627.57227,372.38867ZM1198.1084,634.9873a367.67863,367.67863,0,0,1,37.04785,25.48926q14.81982,11.855,14.82031,34.38086,0,24.89648-17.63574,42.23535a58.11686,58.11686,0,0,1-42.23535,17.33887,57.35068,57.35068,0,0,1-37.9375-13.63477,58.462,58.462,0,0,1-20.4502-34.084l-95.13965,11.2627q8.29834,56.01709,51.86719,94.10254,43.56885,38.08594,101.66016,38.08594,64.01953,0,109.66406-45.64355,45.64307-45.64307,45.64258-109.66309a152.12188,152.12188,0,0,0-7.40918-46.38477q-7.41065-23.26611-35.86231-37.19629,27.5625-19.26562,35.418-40.0127a122.84285,122.84285,0,0,0,7.85352-43.86523q0-63.72217-45.64258-109.36621-45.64453-45.64307-109.66406-45.64355-58.09131,0-101.66016,38.08594t-51.86719,93.80664l95.13965,11.26172a59.01554,59.01554,0,0,1,20.4502-33.93555,56.97814,56.97814,0,0,1,37.9375-13.78223q24.60059,0,42.23535,17.63477,17.63525,17.63525,17.63574,41.93848,0,15.11719-17.19141,31.71387a213.619,213.619,0,0,1-35.8623,28.15723q-13.6333,8.001-20.89551,13.041-7.26123,5.0376-17.63477,10.96582,9.78076,5.335,17.19043,10.07715Q1182.99365,626.09521,1198.1084,634.9873Z"/><path class="cls-4" d="M503.70166,80.05713H507.751V84.106h-4.04932Zm7.019-2.96973h-9.98877v9.98828h9.98877ZM528.80713,59H482.37549v45.89307H501.272v-2.96973H485.34521V61.96924h40.49268v39.9541H510.7207v2.96973h18.08643Zm-9.44775,28.3457h-2.96973V92.4751H495.063V71.418h21.32666v5.12939h2.96973V68.44824H492.09375V95.44434h27.26563Zm-92.86279-7.28857h4.04883V84.106h-4.04883Zm7.01855-2.96973h-9.98828v9.98828h9.98828ZM451.60205,59H405.16992v45.89307h18.897v-2.96973H408.13965V61.96924h40.49316v39.9541H433.51514v2.96973h18.08691Zm-9.44824,28.3457h-2.96973V92.4751H417.85791V71.418h21.32617v5.12939h2.96973V68.44824H414.88867V95.44434h27.26514Z"/><path class="cls-4" d="M1018.041,135.64844H977.81836L896.022,327.85986h31.58447l28.0752-65.87012h72.34766V259.02H957.03223l40.22266-94.75586,45.082,106.36426H960.541v2.96973h83.14551l17.81641,41.57373,2.70019-1.07959L997.25488,156.70508l-71.5376,168.18506h-25.106l79.36621-186.272h35.90332l80.17676,188.43213,2.7002-1.08008Zm-30.23535,11.87842L916.80859,314.09229l2.96924,1.07959,69.91846-164.67578H1005.623l74.2373,174.394h-24.56641l-17.27637-42.11328H956.76172l-17.54687,43.19336,2.69971,1.08008,16.73633-41.3042h77.47705l17.27734,42.11377h30.77441l-76.667-180.333Zm32.39551,98.80518H974.5791l22.94629-55.61182Zm4.31934,2.96973-26.99512-66.41064-27.2666,66.41064ZM821.78613,166.15381h83.68555v-2.96973H761.58643v2.96973h57.23v148.478h2.96973Zm12.95752,9.71875h-2.96973V326.24023h2.96973Zm14.84766,2.15967H906.8208V136.998H749.7085v2.96973H903.85156V175.063h-57.23V326.51025h2.96973ZM834.74365,324.89014H808.28809V175.063h-57.23V153.46582h140.916v-2.96973H748.08887v27.53613h57.22949V327.85986h29.42529ZM702.4668,308.15283a41.45186,41.45186,0,0,0,17.27686-27.80566l-2.96973-.54a38.53446,38.53446,0,0,1-16.332,25.916q-13.63477,9.71851-33.87891,9.71875a101.28864,101.28864,0,0,1-11.47314-.81006,116.2299,116.2299,0,0,1-15.65771-3.10449,136.98607,136.98607,0,0,1-19.1665-6.749,160.92291,160.92291,0,0,1-22.001-11.74316l-1.62012,2.42969a150.08877,150.08877,0,0,0,22.541,12.01367,157.744,157.744,0,0,0,19.707,6.8833,112.40646,112.40646,0,0,0,16.0625,3.23975,104.85659,104.85659,0,0,0,11.60791.80957Q688.15625,318.41113,702.4668,308.15283Zm17.81689-38.874a36.31509,36.31509,0,0,0-4.58936-16.60254,40.60843,40.60843,0,0,0-10.39307-11.74316A60.65626,60.65626,0,0,0,690.8584,232.834a166.25546,166.25546,0,0,0-16.73682-5.66895l-1.3501-.27q-17.81616-4.85962-28.48-8.77344-10.667-3.91113-16.332-8.23437-5.66895-4.3147-7.55859-9.31348a33.082,33.082,0,0,1-1.88965-11.74268V188.021a21.56046,21.56046,0,0,1,2.42969-9.71875,25.33459,25.33459,0,0,1,7.28857-8.63916,38.62677,38.62677,0,0,1,12.0127-6.07373,54.49094,54.49094,0,0,1,16.60205-2.29443,77.8789,77.8789,0,0,1,23.08105,3.37451A124.3906,124.3906,0,0,1,703.81592,175.333l1.62012-2.7002a117.39521,117.39521,0,0,0-24.70068-10.93311,84.29933,84.29933,0,0,0-23.89111-3.37451,56.866,56.866,0,0,0-17.95166,2.56445,40.23134,40.23134,0,0,0-12.82275,6.749,29.19483,29.19483,0,0,0-7.82861,9.5835A23.95607,23.95607,0,0,0,615.5415,188.021v.81006a34.1087,34.1087,0,0,0,2.42969,13.49756,25.40109,25.40109,0,0,0,8.63867,10.2583q6.20654,4.59375,17.27686,8.63916,11.06616,4.04883,28.34521,8.63867l1.07959.26953q8.36426,2.43018,16.062,5.39941a56.47015,56.47015,0,0,1,13.76807,7.55908,38.09134,38.09134,0,0,1,9.853,10.93311,33.89358,33.89358,0,0,1,4.31934,15.52295Zm-28.75,57.09668a65.03021,65.03021,0,0,0,22.271-11.87891,50.78773,50.78773,0,0,0,14.0376-18.76172,61.16044,61.16044,0,0,0,4.85889-24.83643v-.53955q0-12.95874-4.31885-22.272a46.53391,46.53391,0,0,0-12.2832-16.063,71.24454,71.24454,0,0,0-19.1665-11.33789,189.97942,189.97942,0,0,0-24.9707-8.09912q-12.14795-3.2395-19.84131-5.66895a58.71592,58.71592,0,0,1-12.01318-4.99414,15.48464,15.48464,0,0,1-5.939-5.53467,14.43378,14.43378,0,0,1-1.61963-7.01855v-.53955a12.265,12.265,0,0,1,6.2085-10.93359q6.20728-3.9104,16.46777-3.91455,21.865,0,48.05127,18.0874l1.34961.80957,16.7373-24.02588-1.34961-1.08008a153.83608,153.83608,0,0,0-32.93457-15.92773q-16.7417-5.66895-30.7749-5.66895a67.60853,67.60853,0,0,0-20.9209,3.10449,52.85464,52.85464,0,0,0-16.60205,8.63867,42.12616,42.12616,0,0,0-11.20312,13.36279A44.226,44.226,0,0,0,602.5835,188.561l2.96973.27a38.77226,38.77226,0,0,1,15.25244-28.75146q13.90063-10.93286,35.49854-10.93311,13.22388,0,29.29053,5.39941a146.12726,146.12726,0,0,1,31.44922,15.11719l-13.228,19.168q-26.187-17.81836-48.59082-17.81787-11.61108,0-18.62744,4.85938-7.02246,4.85962-7.01855,12.9585v.53955a18.00479,18.00479,0,0,0,1.88965,8.63867,17.29815,17.29815,0,0,0,6.61426,6.34424,57.48908,57.48908,0,0,0,12.82227,5.26416q8.09839,2.42944,20.5166,5.66943a188.13521,188.13521,0,0,1,24.2959,7.96338,72.02676,72.02676,0,0,1,18.35693,10.66357,41.63188,41.63188,0,0,1,11.60791,15.11768q4.04956,8.90845,4.04932,21.32715v.53955a57.46439,57.46439,0,0,1-4.72412,23.75635,48.886,48.886,0,0,1-13.49756,17.81738,61.80355,61.80355,0,0,1-21.19189,11.20361,93.22639,93.22639,0,0,1-28.07471,3.91406,116.872,116.872,0,0,1-41.57275-7.42334,120.78276,120.78276,0,0,1-35.90381-21.19238l14.0376-17.00732q19.70215,12.69287,35.63379,18.35742a93.6973,93.6973,0,0,0,31.58447,5.66895,56.75927,56.75927,0,0,0,17.95166-2.56445,41.84652,41.84652,0,0,0,12.958-6.749,29.03625,29.03625,0,0,0,7.96338-9.44824,23.70565,23.70565,0,0,0,2.69971-10.93359v-.81006a33.149,33.149,0,0,0-2.42969-13.36328q-2.43018-5.52979-8.77344-10.12354-6.3457-4.58716-17.27686-8.63818-10.93286-4.04956-28.21045-8.63867l-1.07959-.27q-21.60059-6.20728-31.71924-14.30811a33.01461,33.01461,0,0,1-12.2832-21.05713l-2.69971.54a35.05272,35.05272,0,0,0,5.53418,14.71289,39.81972,39.81972,0,0,0,10.52783,10.39355,68.73729,68.73729,0,0,0,14.0376,7.28857,153.021,153.021,0,0,0,15.793,5.12939l1.0791.27q17.81763,4.85962,28.48047,8.77393,10.66113,3.91626,16.4668,8.23389,5.80225,4.32129,7.69434,9.31348a33.23828,33.23828,0,0,1,1.88916,11.74316v.81006a21.57043,21.57043,0,0,1-2.4292,9.71826,25.29967,25.29967,0,0,1-7.28857,8.63867,38.27141,38.27141,0,0,1-12.14795,6.07471,55.73127,55.73127,0,0,1-16.7373,2.29443,91.87242,91.87242,0,0,1-31.17969-5.66895q-15.79175-5.66968-35.499-18.62793l-1.07959-.54-17.81689,21.05713,1.08008.81006a119.98283,119.98283,0,0,0,37.3877,22.67676,121.246,121.246,0,0,0,43.32813,7.82861A96.00865,96.00865,0,0,0,691.53369,326.37549Zm-7.42432-37.38965a16.10436,16.10436,0,0,0,7.55908-14.03809v-.53955a17.06845,17.06845,0,0,0-1.75488-7.96387,18.00208,18.00208,0,0,0-6.2085-6.34424,52.415,52.415,0,0,0-12.01318-5.53418q-7.56079-2.56274-18.897-5.53418-13.50146-3.50537-24.70068-7.42383a70.83914,70.83914,0,0,1-19.30176-9.98828A42.58607,42.58607,0,0,1,596.105,216.3667q-4.593-9.17432-4.58936-23.2168v-.54a54.88742,54.88742,0,0,1,4.58936-22.67676,49.38262,49.38262,0,0,1,13.09277-17.54687,59.5359,59.5359,0,0,1,20.38135-11.20361,83.35534,83.35534,0,0,1,26.18555-3.91455q39.41089,0,68.83789,23.75684l1.88965-2.42969q-30.5083-24.29663-70.72754-24.29639a81.3829,81.3829,0,0,0-27.13037,4.31934,65.02717,65.02717,0,0,0-21.19092,12.01318,54.05874,54.05874,0,0,0-18.89746,41.97852v.54q0,14.84985,4.85986,24.56641a45.84546,45.84546,0,0,0,13.3623,16.19775,72.05856,72.05856,0,0,0,20.11182,10.52832q11.60376,4.04956,25.10547,7.55859,11.87549,2.97437,19.03174,5.53467A49.47958,49.47958,0,0,1,682.085,262.7998a15.58413,15.58413,0,0,1,5.26416,5.39893,13.73651,13.73651,0,0,1,1.3501,6.20947v.53955q0,7.56152-6.749,11.87842-6.75073,4.32129-18.897,4.31885a71.60456,71.60456,0,0,1-27.66992-5.53369q-13.363-5.53052-27.40039-16.87256l-1.88965,2.15967q14.57739,12.14795,28.34521,17.68213a75.9937,75.9937,0,0,0,28.61475,5.53467Q676.54956,294.11523,684.10938,288.98584ZM488.124,135.64844H447.90088L366.105,327.85986h31.585l28.07471-65.87012H498.1123V259.02H427.11475l40.22266-94.75586,45.08252,106.36426H430.624v2.96973h83.14551l17.81689,41.57373,2.69971-1.07959L467.3374,156.70508,395.80029,324.89014H370.69482l79.36572-186.272h35.90381l80.17627,188.43213,2.69922-1.08008Zm-30.23437,11.87842-70.998,166.56543,2.96973,1.07959,69.91748-164.67578h15.92725l74.2373,174.394H525.37793l-17.27734-42.11328H426.84473l-17.54687,43.19336,2.69922,1.08008,16.7373-41.3042h77.47607l17.27734,42.11377h30.77441l-76.666-180.333Zm32.394,98.80518H444.66162l22.9458-55.61182Zm4.31934,2.96973-26.99561-66.41064-27.26514,66.41064ZM308.87646,136.998V287.09619L192.52686,139.96777h15.65723L298.34863,258.75V136.998h-2.96973V249.8418L209.53418,136.998H184.15869V314.63184h2.96924V139.96777h1.61963L311.84619,295.73486V139.96777h24.2959V327.85986h2.96973V136.998Zm14.0376,187.89209h-3.23877L196.84619,165.61426V324.89014H172.28027V136.998H169.311V327.85986h30.50439V174.25293L315.89551,324.89014h-12.688l-93.13379-122.2915V327.85986H213.043V211.50732l88.81494,116.35254h24.02588V150.49609h-2.96973Z"/><path class="cls-4" d="M1920.00293,469.03906h-23.3252v2.96973h23.3252l.06934,22.13672h-28.79395v2.96875h28.79395Zm.07031,12.958h-27.1748V460.13086h27.1748v-2.96973h-30.14453V484.9668h30.07422Zm-171.59766,19.4375H1779.251l39.68262,59.39063h35.9043l-44.00293-64.79-1.0791.27051a53.70168,53.70168,0,0,1-6.61426,1.21387q-3.37939.40576-7.15332.6748l-2.43066.27051,34.82422,51.5625,2.43066-1.62012-32.125-47.5127q2.96631-.2666,5.53418-.54,2.562-.2666,5.26465-.80957l39.95313,58.31055h-28.88574l-39.41309-58.58105-.54-.80957h-35.09375v59.39063h-25.915v-174.124H1786.54q30.23,0,46.2959,13.22852,16.05908,13.23047,16.06348,38.60449v1.0791a50.76131,50.76131,0,0,1-4.32031,21.32715,47.45113,47.45113,0,0,1-12.28223,16.332,54.7061,54.7061,0,0,1-19.30176,10.5293,81.76366,81.76366,0,0,1-25.10644,3.64453h-56.69043v59.12109h2.9707V491.44531h53.71973a84.17318,84.17318,0,0,0,26.45605-3.91406,57.81486,57.81486,0,0,0,20.11133-11.06836,49.92123,49.92123,0,0,0,12.82324-17.27734,54.00332,54.00332,0,0,0,4.58887-22.542v-1.0791q0-26.72607-16.7373-40.76465-16.7417-14.0332-48.59082-14.03711h-69.91894V560.8252h31.85449ZM1869.14551,558.666l-43.46289-63.98047q18.89355-7.82666,29.02051-22.94727,10.12207-15.11572,10.123-36.17383v-.54a68.65891,68.65891,0,0,0-4.99414-26.5918,56.18953,56.18953,0,0,0-14.71289-20.65137q-19.98047-17.81763-53.7207-17.81738h-87.19531V559.47559h2.9707v-186.542h84.22461a93.28322,93.28322,0,0,1,29.291,4.31885A63.07492,63.07492,0,0,1,1842.96,389.6709a53.69009,53.69009,0,0,1,14.03711,19.57227,65.51142,65.51142,0,0,1,4.85938,25.78125v.54q0,20.51807-10.123,35.22949-10.12353,14.71582-29.02051,21.73145l-1.61914.81055,45.62109,66.94922Zm-55.47559-101.63965q9.31348-7.69482,9.31348-20.65234v-.54q0-13.76807-9.043-21.19238-9.04834-7.4209-26.05176-7.42285h-42.38184v56.15137h2.96875V410.1875h39.41309a59.35692,59.35692,0,0,1,11.06836,1.08008,31.51623,31.51623,0,0,1,10.39356,3.91406,22.18457,22.18457,0,0,1,7.69336,7.8291q2.96777,4.99951,2.96973,12.82324v.54q0,11.88135-8.36914,18.627-8.37012,6.75146-22.94531,6.749h-29.69434v2.96973h29.69434Q1804.35107,464.71973,1813.66992,457.02637Zm10.25781,10.123Q1837.29,455.81152,1837.291,436.374v-.80957q0-20.24707-12.958-31.0459-12.95654-10.79443-37.52344-10.79785H1747.127v2.96875h39.68262q22.94238,0,35.22852,9.98926,12.28125,9.99023,12.2832,28.88574v.80957q0,17.81689-12.68848,28.48047-12.69141,10.66846-33.74414,10.66406h-53.71973V395.07031h-2.9707v83.417h56.69043Q1810.56592,478.4873,1823.92773,467.14941Zm-227.43457-98.53564h-40.22168L1474.47461,560.8252h31.584l28.07519-65.87012h72.34863v-2.96973h-70.998l40.22266-94.75586,45.082,106.36426h-81.79492v2.96973h83.14551l17.81641,41.57422,2.69922-1.08008L1575.707,389.6709l-71.53711,168.18457h-25.10645l79.36621-186.272h35.9043l80.17676,188.43213,2.69922-1.08008Zm-30.23437,11.87842-70.998,166.56543,2.96973,1.08008,69.918-164.67578h15.92773l74.23633,174.39355h-24.56543l-17.27637-42.11328h-81.25684L1517.667,558.93555l2.7002,1.08008,16.73633-41.30371h77.47656l17.27734,42.11328h30.77539l-76.668-180.333Zm32.39453,98.80566h-45.62207l22.94629-55.6123Zm4.31934,2.96973-26.99512-66.41113-27.26562,66.41113Zm-141.99316,75.58789h-134.166V372.93359h25.10547V536.79883h98.80274V533.8291h-95.833V369.96387h-31.04492V560.8252h137.13574Zm1.35059-37.52441h-94.21387V371.5835h-2.96973V523.30078h94.21387v22.67676H1341.66113V383.46191h-2.96973V548.94727h123.63867Zm-259.42383-69.10937,62.35938-66.9502-2.15918-1.88965L1199.127,451.22168l79.09668,106.63379h-28.3457l-58.84961-80.71777-23.2168,24.29688v57.77148h2.9707V502.51465l19.97559-20.78711,57.77051,79.09766h35.36426Zm-45.35254,49.13281,35.09473-37.79395,63.43848,85.84668,2.42969-1.88965L1192.918,457.7002l-38.333,41.57422v58.58105h-25.10645V371.5835h-2.96875V560.8252h31.04395Zm142.53613,58.041-79.36719-106.9043,78.0166-81.52734h-39.14258l-102.043,110.68359V383.46191H1154.585V488.47656l106.36133-115.543h31.04395l-75.0459,78.28809,80.71484,109.06348ZM1142.707,372.93359h25.10449v84.49707l78.82715-84.76709-2.15918-2.16016-73.69727,79.36865v-79.9082h-31.0459V547.32715h2.9707Zm-100.28516,39.68359q11.19727,4.85889,23.08106,15.92773l1.34863.80957,18.08691-21.05664,1.08008-1.0791-1.08008-.81055q-27.26953-27.53467-66.67773-27.53564a86.532,86.532,0,0,0-34.01465,6.61377,82.48492,82.48492,0,0,0-45.082,45.623,89.09712,89.09712,0,0,0-6.47852,34.15039v.54a87.76164,87.76164,0,0,0,5.93848,32.39453,84.66308,84.66308,0,0,0,16.4668,26.5918,82.34372,82.34372,0,0,0,24.97168,18.49219,83.17315,83.17315,0,0,0,31.44922,8.09863l.26953-2.96973a81.53632,81.53632,0,0,1-30.23535-7.8291,78.32373,78.32373,0,0,1-24.16064-17.81641,83.7677,83.7677,0,0,1-21.73047-56.96191v-.54a86.831,86.831,0,0,1,6.209-33.07031,79.06354,79.06354,0,0,1,43.4624-44.00391,84.31868,84.31868,0,0,1,32.93457-6.34375q19.437,0,34.68848,6.21,15.249,6.2124,29.02051,19.43652l-15.3877,17.81738q-12.14795-10.79443-23.62012-15.6582a62.01265,62.01265,0,0,0-24.43164-4.85937,53.579,53.579,0,0,0-22.13574,4.58984,55.6371,55.6371,0,0,0-17.81738,12.55273A56.36608,56.36608,0,0,0,966.834,440.82813a66.25681,66.25681,0,0,0-4.18359,23.8916v.54a67.34329,67.34329,0,0,0,4.18359,24.02637,57.52373,57.52373,0,0,0,11.74316,19.167,54.53974,54.53974,0,0,0,17.81738,12.68848,53.51618,53.51618,0,0,0,22.13574,4.58887,69.08983,69.08983,0,0,0,14.84766-1.48437,58.48732,58.48732,0,0,0,12.6875-4.31934,66.54325,66.54325,0,0,0,11.47363-7.01855q5.52832-4.18359,11.47266-9.584l-2.16016-2.16016a101.51765,101.51765,0,0,1-22.001,15.92773q-10.93213,5.66895-26.32031,5.66992a49.916,49.916,0,0,1-21.05566-4.45508,51.33556,51.33556,0,0,1-16.7373-12.14746,57.10865,57.10865,0,0,1-11.06836-18.22266,62.62115,62.62115,0,0,1-4.0498-22.67676v-.54a62.62115,62.62115,0,0,1,4.0498-22.67676,55.49473,55.49473,0,0,1,11.06836-18.08691,50.64872,50.64872,0,0,1,16.7373-11.87891,51.303,51.303,0,0,1,21.05566-4.31836A59.4063,59.4063,0,0,1,1042.42188,412.61719Zm34.6875,112.0332a77.64915,77.64915,0,0,1-54.53027,23.75684V551.377a89.01124,89.01124,0,0,0,30.91016-6.61426,82.13876,82.13876,0,0,0,25.78027-17.95215Zm-1.34863-16.4668-1.08008,1.08008a92.06911,92.06911,0,0,1-9.44824,9.17773,62.94051,62.94051,0,0,1-12.6875,8.23438,87.862,87.862,0,0,1-16.19727,6.07422,74.854,74.854,0,0,1-19.707,2.42969,65.79836,65.79836,0,0,1-26.45508-5.26465,64.03686,64.03686,0,0,1-21.05664-14.57812,68.31756,68.31756,0,0,1-14.03809-22.13574,73.78912,73.78912,0,0,1-5.12891-27.67187V462.4248a18.74147,18.74147,0,0,1,.27051-3.10449,69.42524,69.42524,0,0,1,5.80371-24.16113,67.62448,67.62448,0,0,1,13.22852-19.707,65.2029,65.2029,0,0,1,19.03027-13.63281,67.69452,67.69452,0,0,1,23.48633-6.21l-.26953-2.96875a69.89976,69.89976,0,0,0-24.56641,6.47852,67.69707,67.69707,0,0,0-33.47412,34.69043,78.0955,78.0955,0,0,0-6.209,25.24121,19.59461,19.59461,0,0,0-.26953,3.23926v3.23926a76.9485,76.9485,0,0,0,5.12891,28.07617,70.36617,70.36617,0,0,0,14.57764,23.2168,67.66089,67.66089,0,0,0,22.541,15.793,68.37791,68.37791,0,0,0,27.40039,5.5332,80.56586,80.56586,0,0,0,19.8418-2.29395A79.50628,79.50628,0,0,0,1066.042,521.5459a90.00938,90.00938,0,0,0,9.98828-9.043l16.19727,16.46777q-16.19678,17.00684-33.74414,24.43066-17.55029,7.42822-41.30273,7.42383a94.342,94.342,0,0,1-65.59912-25.78125,92.89164,92.89164,0,0,1-20.38086-28.48047,96.082,96.082,0,0,1-8.77393-35.63477h-2.96924a99.32577,99.32577,0,0,0,8.90869,36.84961,96.71176,96.71176,0,0,0,20.9209,29.42578A94.78413,94.78413,0,0,0,979.792,556.77637a99.07362,99.07362,0,0,0,37.38867,7.01855,130.40685,130.40685,0,0,0,22.94629-1.88965,91.52436,91.52436,0,0,0,19.97656-5.93848,87.7945,87.7945,0,0,0,18.08594-10.5293,136.11937,136.11937,0,0,0,17.27734-15.65723l.80957-1.08008ZM1022.5791,395.33984q24.5625,1.08252,41.57324,15.92773l1.88965-2.16016a70.4103,70.4103,0,0,0-19.70605-12.0127,72.07,72.07,0,0,0-23.75684-4.72461Zm36.71484-19.167q17.272,6.75146,32.66406,21.86621l1.88965-2.15918q-15.38818-15.38818-33.33984-22.40674-17.95459-7.0166-41.707-7.01855a104.0411,104.0411,0,0,0-38.60352,7.15332,94.90094,94.90094,0,0,0-31.855,20.65283,98.65367,98.65367,0,0,0-20.78662,30.50488,97.4326,97.4326,0,0,0-8.09814,36.71484h2.96924a99.08736,99.08736,0,0,1,8.36865-36.84961,91.08489,91.08489,0,0,1,50.481-48.32275,100.452,100.452,0,0,1,37.52441-6.88428Q1042.01416,369.42383,1059.29394,376.17285ZM892.73242,533.55957H776.92236V472.27832h89.62549V457.7002H776.92236v-60.4707h102.043v-2.96875H773.95313v66.40918h89.62451v8.63965H773.95313V536.5293H889.76318v21.32617H749.65771V372.93359H889.76318v-2.96973H746.6875V560.8252H892.73242ZM880.31494,545.708H762.07568V385.62109h126.3374v21.05762H787.7207v41.30371h88.54492v33.74512H787.7207v42.38281H891.11279V521.1416H790.69092V484.69629h88.54395V445.0127H790.69092V409.64746H891.3833V382.65137H759.10547V548.67773H880.31494ZM727.79053,370.2334H696.20605l-63.97852,161.166L573.10791,382.92188,570.4082,384.002,632.22754,539.499l66.13818-166.29541h25.106l-74.77686,186.272H614.41064L538.82373,371.04346l-2.96973,1.3501,76.397,190.05176h38.603ZM642.48535,549.21777,708.89453,384.002l-2.96924-1.08008-65.3291,163.3252h-16.7373L554.48047,373.20361h27.53564l49.94141,134.98L682.439,372.12354l-2.69971-.81006-47.78174,128.501L583.90576,370.2334H549.8916l72.07715,178.98438ZM437.32275,399.11914H521.0083v-2.96973H377.123v2.96973h57.23V547.59766h2.96973Zm12.95752,9.71875h-2.96973V559.20605h2.96973Zm14.84766,2.16016h57.23V369.96387H365.24512v2.96973H519.38867v35.09473H462.1582V559.47559h2.96973ZM450.28027,557.85547H423.8252V408.02832H366.59473V386.43164h140.916v-2.96973H363.62549V410.998h57.23V560.8252h29.4248ZM304.23633,534.36914q19.16528-19.16455,19.167-54.53125v-96.376h-2.96973v96.376q0,33.74854-17.41162,51.56152-17.41187,17.81836-50.07666,17.81836-32.39429,0-49.53613-17.41309-17.14673-17.4126-17.14209-50.8877V372.93359h25.10547V477.94727q0,22.94971,10.93311,35.36523,10.93359,12.42041,31.17969,12.418,19.97388,0,30.90967-12.14844,10.93359-12.14795,10.93311-34.28418V371.5835H292.3584V479.29785q0,21.05713-9.98779,32.25977-9.991,11.20605-28.88525,11.2041-19.17041,0-29.15527-11.47363-9.9895-11.47119-9.98779-33.34082V369.96387H183.29736V480.917q0,34.2876,18.627,53.45215,18.08276,17.81689,51.021,17.81738Q285.87793,552.18652,304.23633,534.36914Zm9.71875,8.09961q22.67578-22.13379,22.67627-64.791V369.96387h-30.7749v107.9834q0,28.61865-13.498,43.59863-13.50146,14.98389-38.873,14.9834-25.65015,0-39.0083-15.3877-13.3623-15.38818-13.3623-44.81348V383.46191H198.145v92.86621q0,30.2373,14.30762,46.70313,14.30493,16.46924,41.03271,16.46777,26.45361,0,40.89795-16.06348,14.43823-16.05762,14.44238-45.48828V372.93359h24.83594V477.67773q0,40.49414-20.65137,61.82129-20.65137,21.32813-60.06494,21.32617-38.87329,0-59.38965-21.05664-20.5188-21.05713-20.51611-60.74121V371.5835h-2.96973V479.02734q0,41.3042,22.13623,63.44141,21.32227,21.32813,60.73926,21.32617Q292.08447,563.79492,313.95508,542.46875ZM32.93457,434.21484H92.32422L81.25586,496.84473H22.13623Zm51.021,65.59961L95.8335,431.24414H30.50488L18.35693,499.81445Zm39.14307-90.43652,6.749-39.41406H103.12207L94.4834,420.7168H35.09424l6.74854-39.41406-2.96924-.27051L31.585,423.68555H96.91357l8.9082-50.752h20.5166l-6.74854,39.41406H140.376v18.89648H107.71191l1.0791-7.55859h21.05664V420.7168h-20.5166l6.749-39.41406-2.96924-.27051-8.63867,51.292L92.59424,499.81445h38.06348v18.89746H101.23242l-6.749,40.49414,2.96973.53906,6.479-38.06348h29.69531V496.84473H96.37354l10.79834-62.62988h36.17334V409.37793ZM.28662,423.68555H22.67627l8.90869-50.752h20.5166l-6.749,39.41406H87.19531l7.019-40.49414-2.96973-.54-6.479,38.06445H48.86182l6.74854-39.41406H28.88525L20.24658,420.7168H.28613Zm72.061,125.80176,2.96924.54L82.606,507.10352H17.27734l-8.63867,50.752H.38135v-58.041H6.47949l-1.08008,7.28906H.3335v2.96973H4.85938L.32422,536.56152l.04639,13.33691.70947.12891,20.51611-118.7832H.334L.28662,412.34766H12.958l6.749-40.49414-2.69971-.54-6.749,38.06445H.333L.28662,434.21484H18.0874L7.019,496.84473H.38135L.38086,560.8252h10.6875l8.63867-50.752H79.09668Zm47.78174-42.38379H91.51465l-8.63867,50.752H62.08936l6.749-39.14355H26.99512l-7.01807,40.49414,2.96924.53906,6.479-38.06348H65.3291l-6.749,39.14355H85.30566l8.63867-50.752h26.18506ZM7.28857,443.66309H.333l.00049,2.96973H3.77979L.30371,467.792,0,487.39648l.436-2.61523Zm99.34326,43.7334h25.37549v-2.96973H110.14111l6.479-37.79395h25.10547v-2.96973H114.19043Zm-64.249-40.76367H78.28662l-6.47852,37.79395H35.90381ZM74.2373,487.39648l7.55859-43.7334H39.95361L32.395,487.39648Z"/><path class="cls-4" d="M1804.90234,710.44336v2.96973h68.29883v67.48926q-34.56006,28.89111-78.82715,28.88574A92.55059,92.55059,0,0,1,1759.01074,802.5a93.08444,93.08444,0,0,1-48.8623-47.37793,92.436,92.436,0,0,1-8.36816-35.23047h-2.96973a94.3159,94.3159,0,0,0,8.77344,36.84961,98.64734,98.64734,0,0,0,21.05664,29.42578,94.7683,94.7683,0,0,0,30.50488,19.57227,99.06859,99.06859,0,0,0,37.38769,7.01855q44.272-.54346,79.09766-30.23535l.53906-.26953V710.44336Zm16.60156-48.86328q11.2002,4.85889,23.35156,15.92871l1.08008.80859,18.35742-21.05566.80859-1.08008-1.08008-.81055q-27.26807-27.53467-66.4082-27.53516a86.5304,86.5304,0,0,0-34.01367,6.61328,84.8317,84.8317,0,0,0-27.26562,18.22266,82.63831,82.63831,0,0,0-18.08691,27.40137,89.11972,89.11972,0,0,0-6.47851,34.14941v.54a86.76384,86.76384,0,0,0,22.67578,58.98633,82.95906,82.95906,0,0,0,56.41992,26.59082v-2.96973a81.54425,81.54425,0,0,1-30.23437-7.82812,78.30711,78.30711,0,0,1-24.16016-17.81738,83.75743,83.75743,0,0,1-21.73145-56.96191v-.54a85.24034,85.24034,0,0,1,6.34375-33.07031,81.97819,81.97819,0,0,1,17.41211-26.45605,79.76418,79.76418,0,0,1,26.18555-17.54687,84.29271,84.29271,0,0,1,32.93359-6.34375q19.16455,0,34.55469,6.209a88.99046,88.99046,0,0,1,28.88477,19.43652l-15.3877,17.81738q-12.14795-10.79443-23.48535-15.6582a61.0216,61.0216,0,0,0-24.2959-4.8584,54.02064,54.02064,0,0,0-40.08789,17.14258,59.26821,59.26821,0,0,0-11.74316,18.89648,64.43531,64.43531,0,0,0-4.31934,23.8916v.54a65.31185,65.31185,0,0,0,4.332,24.02637,60.52121,60.52121,0,0,0,11.77637,19.167,53.24077,53.24077,0,0,0,17.73242,12.68848,54.468,54.468,0,0,0,22.46973,4.58887,63.6031,63.6031,0,0,0,19.89649-2.96875,69.4371,69.4371,0,0,0,18.00684-9.17871h.54V734.19922h-43.46289v2.96973h40.22266v23.48633a61.37027,61.37027,0,0,1-35.36328,11.06934,49.92361,49.92361,0,0,1-21.05664-4.45508,52.85816,52.85816,0,0,1-16.87207-12.14746,55.888,55.888,0,0,1-11.20312-18.22266,62.63773,62.63773,0,0,1-4.04883-22.67676v-.54a62.64152,62.64152,0,0,1,4.04883-22.67676,54.33717,54.33717,0,0,1,11.20313-18.08691,52.16071,52.16071,0,0,1,16.87207-11.87793,51.29569,51.29569,0,0,1,21.05664-4.31934A58.744,58.744,0,0,1,1821.50391,661.58008Zm53.31641,39.9541v-2.96973h-83.14551V725.291h69.64746v43.46387l-4.8584,4.8584a83.30353,83.30353,0,0,1-24.9707,17.27832,84.94391,84.94391,0,0,1-29.83008,6.47852v2.96973a89.02106,89.02106,0,0,0,30.91016-6.61426,82.14619,82.14619,0,0,0,25.7793-17.95215l5.94043-5.66895v-47.7832h-69.64844V701.53418Zm-26.72559,66.68066V734.73926H1845.125v31.85547a73.068,73.068,0,0,1-22.81055,13.09375,78.93235,78.93235,0,0,1-26.58984,4.4541,65.80308,65.80308,0,0,1-26.45605-5.26465,64.0324,64.0324,0,0,1-21.05664-14.57812,68.29079,68.29079,0,0,1-14.03711-22.13574,73.77629,73.77629,0,0,1-5.12988-27.67187V711.3877a18.75037,18.75037,0,0,1,.27051-3.10449,73.824,73.824,0,0,1,6.07422-24.16113,69.11339,69.11339,0,0,1,13.09277-19.707,63.43666,63.43666,0,0,1,18.89648-13.63281,67.66682,67.66682,0,0,1,23.48535-6.209l-.26953-2.96973a69.87458,69.87458,0,0,0-24.56543,6.47949,67.6837,67.6837,0,0,0-33.47461,34.68945,78.08918,78.08918,0,0,0-6.209,25.24121,19.49823,19.49823,0,0,0-.26953,3.23926v3.23926a76.92434,76.92434,0,0,0,5.12891,28.07617,71.31263,71.31263,0,0,0,37.25391,39.00977,67.42317,67.42317,0,0,0,27.26563,5.5332,78.69965,78.69965,0,0,0,51.83008-18.627Zm-46.43164-123.91113q24.561,1.08105,41.57324,15.92676l1.88867-2.16016a70.41029,70.41029,0,0,0-19.70606-12.0127,72.0393,72.0393,0,0,0-23.75586-4.72363Zm36.84863-19.0332q17.41113,6.88477,32.53027,21.73242l2.15918-2.16016q-15.65918-15.38672-33.60937-22.40625-17.95752-7.0166-41.43848-7.01953a104.03553,104.03553,0,0,0-38.60351,7.1543,95.63773,95.63773,0,0,0-52.77539,51.15723,103.00751,103.00751,0,0,0-8.2334,36.71484h2.96973a99.07238,99.07238,0,0,1,8.36816-36.84961,90.78445,90.78445,0,0,1,50.61621-48.32324,101.51664,101.51664,0,0,1,37.6582-6.88379Q1821.0957,618.38672,1838.51172,625.27051Zm-239.582-7.69336H1558.707l-81.7959,192.21094h31.584l28.0752-65.87012H1608.918v-2.96973h-70.998l40.22363-94.75586,45.082,106.36426h-81.7959v2.96973h83.14551l17.81738,41.57422,2.69922-1.08008-66.94824-157.38672-71.53809,168.18457H1481.5l79.36621-186.27148h35.90332l80.17676,188.43164,2.69922-1.08008Zm-30.23438,11.87793-70.998,166.56543,2.96973,1.08008,69.917-164.67578h15.92773l74.2373,174.39355h-24.56543l-17.27734-42.11328h-81.25586l-17.54687,43.19336,2.69922,1.08008L1539.54,767.6748h77.47656l17.27734,42.11328h30.77441l-76.667-180.333Zm32.39453,98.80566h-45.62207l22.94531-55.6123Zm4.31836,2.96973-26.99512-66.41113-27.26562,66.41113Zm-147.66309-21.32715a94.67072,94.67072,0,0,0-8.36914-35.499,90.5751,90.5751,0,0,0-21.32617-29.292,95.50579,95.50579,0,0,0-32.124-19.43652,113.41276,113.41276,0,0,0-39.41309-6.749h-74.77734V808.43848h2.96973v-186.542h71.80762a108.226,108.226,0,0,1,38.19824,6.61328,95.97,95.97,0,0,1,30.77441,18.3584,87.63887,87.63887,0,0,1,20.78711,27.94043,90.44913,90.44913,0,0,1,8.50293,35.36523Zm-158.19238,96.915V634.04492h50.751a115.63719,115.63719,0,0,1,37.25293,5.66895,82.42835,82.42835,0,0,1,28.61523,16.19727,73.77593,73.77593,0,0,1,18.49219,25.24121,78.46851,78.46851,0,0,1,6.61328,32.53027v.80957a78.44909,78.44909,0,0,1-6.61328,32.53027,74.29355,74.29355,0,0,1-18.627,25.377,86.08333,86.08333,0,0,1-28.75,16.60254,109.91772,109.91772,0,0,1-36.9834,5.93848h-38.874v2.96973h38.874a114.09416,114.09416,0,0,0,38.06348-6.07422,87.819,87.819,0,0,0,29.69531-17.14258,77.31507,77.31507,0,0,0,19.30078-26.45605,81.671,81.671,0,0,0,6.88379-33.74512v-.80957a83.44355,83.44355,0,0,0-6.47851-33.20508,73.18384,73.18384,0,0,0-19.43652-26.45605,88.13436,88.13436,0,0,0-30.09961-17.14258,117.75461,117.75461,0,0,0-37.92871-5.80371H1296.583V809.78809h59.92969a116.28428,116.28428,0,0,0,39.00879-6.34375,93.80712,93.80712,0,0,0,31.98828-19.03223,85.57639,85.57639,0,0,0,21.32715-28.48047,95.73052,95.73052,0,0,0,8.63867-34.96l-2.96973-.27051a90.65546,90.65546,0,0,1-8.77344,34.96094,85.284,85.284,0,0,1-20.65137,27.13086,94.60813,94.60813,0,0,1-30.50488,17.68164,111.12172,111.12172,0,0,1-38.06348,6.34375Zm10.25781-161.97559V786.57129H1353.543a87.80105,87.80105,0,0,0,31.04492-5.26367,71.97267,71.97267,0,0,0,24.16113-14.71289,66.36205,66.36205,0,0,0,15.792-22.67676A73.23669,73.23669,0,0,0,1430.21,714.7627v-.54a73.88406,73.88406,0,0,0-5.53418-29.02051,63.79788,63.79788,0,0,0-15.65723-22.40723,71.46715,71.46715,0,0,0-24.16113-14.44238,90.78828,90.78828,0,0,0-31.31445-5.12891H1324.6582v2.96875H1353.543a89.10987,89.10987,0,0,1,30.09961,4.86035,67.75843,67.75843,0,0,1,23.35059,13.7666,60.41721,60.41721,0,0,1,14.9834,21.46289,71.58945,71.58945,0,0,1,5.26367,27.94043v.54a70.28555,70.28555,0,0,1-5.39941,27.80566,64.34945,64.34945,0,0,1-15.11719,21.86719A67.17659,67.17659,0,0,1,1383.373,778.6084a86.05188,86.05188,0,0,1-29.83008,4.99414h-40.7627V644.84277Zm26.72559,124.72168v2.96973h19.97656a64.112,64.112,0,0,0,23.62109-4.18457,52.17485,52.17485,0,0,0,30.23438-30.23535,64.17915,64.17915,0,0,0,4.18457-23.62207v-.53906a63.26981,63.26981,0,0,0-3.7793-22.27246,52.91423,52.91423,0,0,0-10.79883-17.68164,54.21713,54.21713,0,0,0-16.73633-12.14844,59.64826,59.64826,0,0,0-21.59668-5.39941h-38.60352v114.7334h2.96973V659.4209h35.36426a58.62507,58.62507,0,0,1,20.65137,5.12988,51.29766,51.29766,0,0,1,15.92676,11.33789,47.73748,47.73748,0,0,1,10.123,16.7373,62.453,62.453,0,0,1,3.50977,21.32715v.53906a62.11372,62.11372,0,0,1-3.91406,22.542,48.82639,48.82639,0,0,1-28.61523,28.61621,62.04421,62.04421,0,0,1-22.541,3.91406Zm-88.27148-51.5625H1169.4375v2.96973h75.85742V743.1084h-81.25586v2.96973h84.22559Zm-6.749,12.958H1165.6582V709.09375h81.25586V706.124h-84.22559v27.80566h78.82715Z"/></g></svg>